<svg preserveAspectRatio="none" overflow="visible" style="display: block;" width="132.476" height="60.4756" viewBox="0 0 132.476 60.4756" fill="none" xmlns="http://www.w3.org/2000/svg">
<g id="Group 8">
<path id="Vector" d="M125.038 0.237778H7.43779C3.46175 0.237778 0.237778 4.53579 0.237778 9.83782V50.6377C0.237778 55.9396 3.46175 60.2378 7.43779 60.2378H125.038C129.015 60.2378 132.238 55.9396 132.238 50.6377V9.83782C132.238 4.53579 129.015 0.237778 125.038 0.237778Z" fill="#101412" stroke="#00A65A" stroke-width="0.475556"/>
<path id="Vector_2" d="M125.038 0.237778H7.43779C3.46175 0.237778 0.237778 4.53579 0.237778 9.83782V50.6377C0.237778 55.9396 3.46175 60.2378 7.43779 60.2378H125.038C129.015 60.2378 132.238 55.9396 132.238 50.6377V9.83782C132.238 4.53579 129.015 0.237778 125.038 0.237778Z" fill="#101412" stroke="#00A65A" stroke-width="0.475556"/>
<path id="Vector_3" d="M54.6541 13.7881H12.3859C11.7258 13.7881 11.1892 14.3233 11.1892 14.9837V41.2878C11.1892 41.9481 11.7258 42.4834 12.3859 42.4834H54.6541C55.3141 42.4834 55.8492 41.9481 55.8492 41.2878V14.9837C55.8492 14.3233 55.3141 13.7881 54.6541 13.7881Z" stroke="#F6F7F6" stroke-width="0.713333" stroke-linecap="round" stroke-linejoin="round"/>
<path id="Vector_4" d="M64.3274 21.3516C64.2995 21.0713 64.1804 20.8535 63.9702 20.6983C63.7585 20.5431 63.4734 20.4654 63.1117 20.4654C62.8662 20.4654 62.6589 20.5001 62.4899 20.5697C62.3208 20.6369 62.19 20.7306 62.1003 20.8512C62.0121 20.9717 61.968 21.1083 61.968 21.2613C61.9636 21.3888 61.9901 21.4999 62.0474 21.5949C62.1077 21.69 62.19 21.7722 62.2944 21.8417C62.3987 21.9089 62.5193 21.968 62.656 22.019C62.7927 22.0676 62.9383 22.1094 63.0941 22.1441L63.7336 22.297C64.0437 22.3665 64.3289 22.4593 64.5891 22.5751C64.8479 22.6909 65.0728 22.8334 65.2624 23.0026C65.4535 23.1717 65.6005 23.371 65.7049 23.6003C65.8107 23.8298 65.8651 24.0928 65.8681 24.3893C65.8651 24.8249 65.7534 25.2027 65.5343 25.5224C65.3168 25.8398 65.0007 26.0866 64.5891 26.2627C64.179 26.4365 63.6836 26.5234 63.1044 26.5234C62.5296 26.5234 62.0298 26.4353 61.6035 26.2592C61.1786 26.0831 60.8479 25.8224 60.6097 25.4771C60.373 25.1296 60.2481 24.6998 60.2378 24.1877H61.6931C61.7093 24.4263 61.7784 24.6257 61.8989 24.7855C62.021 24.9431 62.1841 25.0624 62.3885 25.1436C62.5943 25.2222 62.828 25.2616 63.0867 25.2616C63.3425 25.2616 63.563 25.2246 63.7512 25.1505C63.9408 25.0764 64.0878 24.9732 64.1922 24.8412C64.2966 24.709 64.348 24.5573 64.348 24.3858C64.348 24.226 64.301 24.0916 64.2069 23.9827C64.1143 23.8737 63.9776 23.7811 63.7968 23.7047C63.6174 23.6281 63.3984 23.5587 63.1396 23.4961L62.3635 23.3015C61.7637 23.1555 61.2903 22.9272 60.9434 22.6167C60.595 22.3062 60.423 21.888 60.4245 21.362C60.423 20.9312 60.5377 20.5545 60.7685 20.2324C61.0022 19.9105 61.3242 19.659 61.7314 19.4783C62.14 19.2976 62.6031 19.2072 63.122 19.2072C63.6498 19.2072 64.1113 19.2976 64.5053 19.4783C64.9008 19.659 65.2095 19.9105 65.43 20.2324C65.6505 20.5545 65.7637 20.9276 65.7696 21.3516H64.3274ZM69.2639 26.5267C68.717 26.5267 68.2466 26.4109 67.8526 26.1792C67.4616 25.9452 67.1602 25.6209 66.95 25.206C66.7413 24.7913 66.6369 24.314 66.6369 23.7741C66.6369 23.2274 66.7413 22.7477 66.953 22.3352C67.1661 21.9205 67.4689 21.5972 67.86 21.3656C68.251 21.1315 68.717 21.0145 69.2565 21.0145C69.7225 21.0145 70.1312 21.099 70.4811 21.2682C70.8309 21.4374 71.1073 21.6749 71.3116 21.9808C71.5145 22.2865 71.6277 22.6457 71.6483 23.0582H70.2517C70.212 22.7916 70.1077 22.5773 69.9386 22.4152C69.771 22.2507 69.552 22.1683 69.2815 22.1683C69.0522 22.1683 68.8522 22.231 68.6802 22.3561C68.5112 22.479 68.3789 22.6585 68.2834 22.8948C68.1893 23.1311 68.1422 23.4173 68.1422 23.7534C68.1422 24.094 68.1878 24.3836 68.2804 24.6221C68.376 24.8609 68.5083 25.0427 68.6802 25.1678C68.8522 25.2929 69.0522 25.3556 69.2815 25.3556C69.4506 25.3556 69.602 25.3207 69.7372 25.2513C69.8739 25.1818 69.9857 25.0809 70.0739 24.9489C70.165 24.8144 70.2238 24.6535 70.2517 24.4657H71.6483C71.6248 24.8735 71.5145 25.2327 71.3146 25.5433C71.1176 25.8514 70.8456 26.0923 70.4972 26.2661C70.1503 26.4399 69.7387 26.5267 69.2639 26.5267ZM74.118 26.5234C73.7784 26.5234 73.4741 26.4643 73.208 26.3461C72.9419 26.2255 72.7302 26.0484 72.5759 25.8144C72.423 25.578 72.3465 25.2837 72.3465 24.9314C72.3465 24.6349 72.401 24.3858 72.5097 24.1842C72.6185 23.9827 72.767 23.8205 72.9537 23.6976C73.1419 23.5749 73.355 23.4821 73.5932 23.4197C73.8342 23.357 74.0871 23.3131 74.3517 23.2875C74.6619 23.2552 74.9118 23.225 75.1029 23.1972C75.2925 23.1671 75.4307 23.123 75.516 23.0651C75.6012 23.0072 75.6439 22.9214 75.6439 22.808V22.7871C75.6439 22.5669 75.5748 22.3966 75.4366 22.2761C75.2999 22.1557 75.1044 22.0954 74.8515 22.0954C74.5854 22.0954 74.3737 22.1545 74.2165 22.2727C74.0577 22.3886 73.9548 22.5345 73.9033 22.7106L72.5332 22.5994C72.6038 22.2751 72.7405 21.9946 72.9434 21.7584C73.1477 21.5196 73.4109 21.3366 73.7328 21.2091C74.0577 21.0793 74.4325 21.0145 74.8589 21.0145C75.1558 21.0145 75.4395 21.0493 75.71 21.1187C75.9835 21.1883 76.226 21.296 76.4362 21.442C76.6494 21.588 76.8184 21.7757 76.9404 22.005C77.0639 22.2321 77.1257 22.5044 77.1257 22.8218V26.4225H75.7203V25.6822H75.6791C75.5939 25.849 75.4792 25.9962 75.3352 26.1237C75.1911 26.2488 75.0191 26.3472 74.8177 26.419C74.6163 26.4885 74.3826 26.5234 74.118 26.5234ZM74.5428 25.5015C74.7604 25.5015 74.9529 25.4586 75.1191 25.3729C75.2866 25.2848 75.4175 25.1667 75.513 25.0183C75.6071 24.8701 75.6542 24.7021 75.6542 24.5144V23.948C75.6086 23.978 75.5454 24.0059 75.463 24.0313C75.3851 24.0546 75.2955 24.0765 75.1955 24.0973C75.097 24.1159 74.997 24.1332 74.8971 24.1495C74.7971 24.1633 74.7075 24.1761 74.6266 24.1877C74.4517 24.2132 74.3002 24.2538 74.1709 24.3093C74.0415 24.365 73.9401 24.4403 73.8681 24.5353C73.796 24.628 73.7607 24.7439 73.7607 24.8828C73.7607 25.0845 73.8342 25.2385 73.9798 25.3451C74.1283 25.4493 74.3149 25.5015 74.5428 25.5015ZM79.7541 23.3362V26.4225H78.2738V21.084H79.685V22.0259H79.7468C79.8658 21.7154 80.0643 21.4698 80.3421 21.2891C80.62 21.1061 80.9566 21.0145 81.3535 21.0145C81.724 21.0145 82.0474 21.0957 82.3223 21.2578C82.5986 21.4199 82.8133 21.6518 82.9662 21.953C83.119 22.2518 83.1955 22.6086 83.1955 23.0235V26.4225H81.7152V23.2875C81.7166 22.9608 81.6328 22.7059 81.4638 22.5229C81.2947 22.3375 81.0625 22.2449 80.7655 22.2449C80.5671 22.2449 80.3906 22.2877 80.2377 22.3734C80.0863 22.4593 79.9687 22.5844 79.8835 22.7489C79.7997 22.911 79.7571 23.1068 79.7541 23.3362ZM85.843 23.3362V26.4225H84.3627V21.084H85.7725V22.0259H85.8357C85.9533 21.7154 86.1518 21.4698 86.4296 21.2891C86.7074 21.1061 87.0455 21.0145 87.441 21.0145C87.8114 21.0145 88.1349 21.0957 88.4112 21.2578C88.6861 21.4199 88.9007 21.6518 89.0536 21.953C89.2065 22.2518 89.2829 22.6086 89.2829 23.0235V26.4225H87.8026V23.2875C87.8056 22.9608 87.7218 22.7059 87.5527 22.5229C87.3837 22.3375 87.1499 22.2449 86.8544 22.2449C86.6545 22.2449 86.4781 22.2877 86.3252 22.3734C86.1753 22.4593 86.0577 22.5844 85.9709 22.7489C85.8872 22.911 85.8445 23.1068 85.843 23.3362ZM90.4502 26.4225V21.084H91.9305V26.4225H90.4502ZM91.194 20.3959C90.9735 20.3959 90.7853 20.3229 90.628 20.1769C90.4722 20.0285 90.3943 19.8514 90.3943 19.6452C90.3943 19.4413 90.4722 19.2663 90.628 19.1204C90.7853 18.972 90.9735 18.8979 91.194 18.8979C91.4145 18.8979 91.6027 18.972 91.7571 19.1204C91.9143 19.2663 91.9937 19.4413 91.9937 19.6452C91.9937 19.8514 91.9143 20.0285 91.7571 20.1769C91.6027 20.3229 91.4145 20.3959 91.194 20.3959ZM94.5972 23.3362V26.4225H93.1168V21.084H94.5281V22.0259H94.5913C94.7089 21.7154 94.9073 21.4698 95.1852 21.2891C95.463 21.1061 95.7997 21.0145 96.1966 21.0145C96.567 21.0145 96.8904 21.0957 97.1668 21.2578C97.4417 21.4199 97.6563 21.6518 97.8092 21.953C97.9621 22.2518 98.0386 22.6086 98.0386 23.0235V26.4225H96.5582V23.2875C96.5597 22.9608 96.4774 22.7059 96.3083 22.5229C96.1378 22.3375 95.9055 22.2449 95.6086 22.2449C95.4101 22.2449 95.2337 22.2877 95.0808 22.3734C94.9294 22.4593 94.8118 22.5844 94.7265 22.7489C94.6427 22.911 94.6001 23.1068 94.5972 23.3362ZM101.611 28.5357C101.132 28.5357 100.72 28.4697 100.376 28.3375C100.036 28.2079 99.7644 28.0306 99.563 27.8058C99.3616 27.5811 99.2308 27.3285 99.1705 27.0482L100.541 26.864C100.582 26.9705 100.648 27.0702 100.738 27.1628C100.829 27.2554 100.948 27.3297 101.096 27.3852C101.246 27.4432 101.43 27.4721 101.645 27.4721C101.968 27.4721 102.233 27.3933 102.441 27.2357C102.652 27.0805 102.757 26.8199 102.757 26.4538V25.4771H102.694C102.629 25.6255 102.532 25.7657 102.403 25.8977C102.274 26.0297 102.106 26.1375 101.902 26.221C101.699 26.3043 101.455 26.3461 101.173 26.3461C100.771 26.3461 100.407 26.2533 100.077 26.0681C99.7511 25.8804 99.491 25.5941 99.2954 25.2096C99.1029 24.8227 99.0073 24.3337 99.0073 23.7429C99.0073 23.1381 99.1058 22.633 99.3028 22.2274C99.4998 21.822 99.7614 21.5184 100.088 21.3169C100.417 21.1154 100.777 21.0145 101.17 21.0145C101.468 21.0145 101.718 21.0655 101.919 21.1674C102.121 21.2671 102.284 21.3922 102.406 21.5428C102.531 21.6912 102.628 21.8371 102.694 21.9808H102.75V21.084H104.22V26.4747C104.22 26.9288 104.11 27.3088 103.886 27.6147C103.664 27.9205 103.356 28.15 102.963 28.3029C102.571 28.4581 102.121 28.5357 101.611 28.5357ZM101.642 25.2338C101.88 25.2338 102.083 25.1747 102.246 25.0567C102.413 24.9362 102.541 24.7647 102.63 24.5422C102.719 24.3176 102.765 24.0487 102.765 23.7359C102.765 23.423 102.721 23.152 102.632 22.9226C102.544 22.6909 102.416 22.5113 102.25 22.3839C102.083 22.2564 101.88 22.1927 101.642 22.1927C101.399 22.1927 101.193 22.2588 101.027 22.3909C100.86 22.5206 100.733 22.7014 100.648 22.9331C100.563 23.1647 100.519 23.4324 100.519 23.7359C100.519 24.0441 100.563 24.3105 100.648 24.5353C100.736 24.7577 100.863 24.9304 101.027 25.0532C101.193 25.1736 101.399 25.2338 101.642 25.2338Z" fill="#F6F7F6"/>
<path id="Vector_5" d="M21.1591 35.3108C24.7475 33.7167 25.5443 28.5356 28.3359 22.9559C29.9309 25.7458 30.7291 29.3327 32.3241 32.9196C33.9191 27.7384 35.1143 23.753 36.7093 21.3618C38.7041 26.1443 39.8993 31.7239 44.6843 35.3108C37.1091 37.3036 29.1341 37.3036 21.1591 35.3108Z" stroke="#00D783" stroke-width="0.713333" stroke-linecap="round" stroke-linejoin="round"/>
<path id="Vector_6" d="M64.3274 34.5047C64.2995 34.2244 64.1804 34.0066 63.9702 33.8513C63.7585 33.696 63.4734 33.6184 63.1117 33.6184C62.8662 33.6184 62.6589 33.6532 62.4899 33.7228C62.3208 33.79 62.19 33.8837 62.1003 34.0043C62.0121 34.1247 61.968 34.2614 61.968 34.4144C61.9636 34.5417 61.9901 34.653 62.0474 34.748C62.1077 34.8431 62.19 34.9253 62.2944 34.9948C62.3987 35.062 62.5193 35.1211 62.656 35.1721C62.7927 35.2208 62.9383 35.2624 63.0941 35.2972L63.7336 35.4501C64.0437 35.5196 64.3289 35.6122 64.5891 35.7282C64.8479 35.8441 65.0728 35.9865 65.2624 36.1557C65.4535 36.3248 65.6005 36.5241 65.7049 36.7534C65.8107 36.9829 65.8651 37.2457 65.8681 37.5424C65.8651 37.978 65.7534 38.3556 65.5343 38.6755C65.3168 38.9929 65.0007 39.2397 64.5891 39.4157C64.179 39.5896 63.6836 39.6765 63.1044 39.6765C62.5296 39.6765 62.0298 39.5884 61.6035 39.4123C61.1786 39.2362 60.8479 38.9755 60.6097 38.6302C60.373 38.2827 60.2481 37.8529 60.2378 37.3409H61.6931C61.7093 37.5794 61.7784 37.7788 61.8989 37.9386C62.021 38.0962 62.1841 38.2155 62.3885 38.2965C62.5943 38.3753 62.828 38.4147 63.0867 38.4147C63.3425 38.4147 63.563 38.3777 63.7512 38.3036C63.9408 38.2293 64.0878 38.1263 64.1922 37.9943C64.2966 37.8621 64.348 37.7104 64.348 37.5389C64.348 37.3791 64.301 37.2447 64.2069 37.1358C64.1143 37.0269 63.9776 36.9342 63.7968 36.8576C63.6174 36.7812 63.3984 36.7117 63.1396 36.6492L62.3635 36.4546C61.7637 36.3086 61.2903 36.0803 60.9434 35.7698C60.595 35.4593 60.423 35.0411 60.4245 34.5151C60.423 34.0843 60.5377 33.7076 60.7685 33.3855C61.0022 33.0635 61.3242 32.8121 61.7314 32.6314C62.14 32.4506 62.6031 32.3603 63.122 32.3603C63.6498 32.3603 64.1113 32.4506 64.5053 32.6314C64.9008 32.8121 65.2095 33.0635 65.43 33.3855C65.6505 33.7076 65.7637 34.0807 65.7696 34.5047H64.3274ZM67.7659 41.5775C67.5777 41.5775 67.4028 41.5625 67.2381 41.5324C67.075 41.5046 66.9412 41.4686 66.8354 41.4246L67.169 40.3193C67.3425 40.3727 67.4983 40.4016 67.638 40.4063C67.7791 40.4109 67.9011 40.3784 68.0026 40.309C68.1069 40.2395 68.1907 40.1213 68.2569 39.9544L68.3436 39.7285L66.4281 34.2371H67.9849L69.0904 38.1576H69.1463L70.262 34.2371H71.8291L69.7549 40.1526C69.6549 40.4399 69.5197 40.6901 69.3477 40.9032C69.1786 41.1187 68.964 41.2844 68.7053 41.4002C68.4451 41.5184 68.1319 41.5775 67.7659 41.5775ZM77.0286 35.7594L75.6733 35.8429C75.6497 35.727 75.5998 35.6227 75.5233 35.5301C75.4469 35.4351 75.3469 35.3597 75.222 35.3041C75.0985 35.2462 74.9515 35.2172 74.7795 35.2172C74.5501 35.2172 74.3576 35.2659 74.1988 35.3632C74.0415 35.4582 73.9636 35.5856 73.9636 35.7456C73.9636 35.873 74.0136 35.9808 74.1165 36.0687C74.2179 36.1567 74.3929 36.2274 74.6413 36.2808L75.6071 36.4754C76.126 36.582 76.5127 36.7534 76.7684 36.9898C77.0228 37.2262 77.1507 37.5367 77.1507 37.9212C77.1507 38.2711 77.0478 38.5782 76.8405 38.8422C76.6376 39.1064 76.3568 39.3126 75.9996 39.461C75.6453 39.6069 75.2367 39.6798 74.7736 39.6798C74.0665 39.6798 73.5035 39.5327 73.0831 39.2385C72.667 38.9419 72.4215 38.5388 72.351 38.029L73.8063 37.9525C73.8504 38.168 73.9577 38.3325 74.1268 38.446C74.2958 38.5573 74.5119 38.6129 74.7765 38.6129C75.0353 38.6129 75.244 38.563 75.4013 38.4634C75.5615 38.3615 75.6424 38.2305 75.6453 38.0707C75.6424 37.9362 75.5865 37.8263 75.4748 37.7406C75.3631 37.6525 75.1926 37.5853 74.9603 37.5389L74.0356 37.3547C73.5152 37.2504 73.1272 37.0698 72.8714 36.8125C72.6185 36.5553 72.4936 36.2274 72.4936 35.8289C72.4936 35.486 72.5862 35.1906 72.7714 34.9426C72.9581 34.6948 73.2212 34.5035 73.5593 34.3692C73.9004 34.2348 74.2988 34.1676 74.756 34.1676C75.4292 34.1676 75.9599 34.3101 76.348 34.5951C76.7361 34.8801 76.964 35.2682 77.0286 35.7594ZM80.9228 34.2371V35.3492H77.7078V34.2371H80.9228ZM78.437 32.9581H79.9173V37.9352C79.9173 38.0719 79.9379 38.1785 79.9805 38.2549C80.0217 38.329 80.0805 38.3812 80.154 38.4113C80.2304 38.4415 80.3186 38.4565 80.4186 38.4565C80.4877 38.4565 80.5567 38.4507 80.6273 38.4391C80.6964 38.4252 80.7493 38.4147 80.7861 38.4078L81.0198 39.5096C80.9449 39.5327 80.8405 39.5594 80.7067 39.5896C80.5729 39.6219 80.4083 39.6416 80.2172 39.6485C79.86 39.6625 79.5468 39.615 79.2778 39.5061C79.0117 39.3972 78.8045 39.2281 78.656 38.9986C78.5075 38.7693 78.434 38.4797 78.437 38.1298V32.9581ZM84.2627 39.6798C83.7129 39.6798 83.2396 39.5687 82.8442 39.3463C82.4502 39.1215 82.1473 38.804 81.9342 38.3938C81.7196 37.9815 81.6137 37.4937 81.6137 36.9307C81.6137 36.3815 81.7196 35.8996 81.9342 35.4849C82.1473 35.0701 82.4472 34.7468 82.8339 34.5151C83.2234 34.2835 83.6791 34.1676 84.2025 34.1676C84.5553 34.1676 84.8831 34.2244 85.1859 34.3378C85.4932 34.4491 85.7592 34.6171 85.9856 34.8419C86.215 35.0667 86.3943 35.3492 86.5207 35.6898C86.6486 36.0282 86.7118 36.4244 86.7118 36.8785V37.2851H82.2047V36.3677H85.3182C85.3182 36.1545 85.2727 35.9656 85.18 35.8011C85.0874 35.6366 84.9581 35.508 84.7934 35.4154C84.6317 35.3203 84.4436 35.2728 84.2275 35.2728C84.0025 35.2728 83.8026 35.325 83.6292 35.4292C83.4586 35.5312 83.3234 35.6691 83.2264 35.8429C83.1293 36.0143 83.0793 36.2054 83.0764 36.4163V37.2887C83.0764 37.5528 83.1249 37.781 83.2234 37.9734C83.3219 38.1657 83.463 38.314 83.6438 38.4182C83.8247 38.5225 84.0378 38.5747 84.2863 38.5747C84.4509 38.5747 84.6009 38.5514 84.7376 38.5051C84.8743 38.4588 84.9919 38.3893 85.0889 38.2965C85.1859 38.2039 85.2609 38.0904 85.3124 37.9559L86.681 38.0463C86.6119 38.3753 86.4693 38.6627 86.2532 38.9084C86.04 39.1517 85.7651 39.3416 85.427 39.4783C85.0904 39.6127 84.7023 39.6798 84.2627 39.6798ZM87.6791 39.5756V34.2371H89.0904V35.179H89.1521C89.2638 34.8662 89.4491 34.6195 89.7078 34.4387C89.968 34.258 90.2782 34.1676 90.6398 34.1676C91.0058 34.1676 91.3175 34.2592 91.5748 34.4422C91.832 34.6229 92.004 34.8685 92.0893 35.179H92.1451C92.2539 34.8731 92.4509 34.6288 92.7361 34.4456C93.0227 34.2602 93.3623 34.1676 93.7534 34.1676C94.2517 34.1676 94.656 34.3264 94.9676 34.6438C95.2793 34.9589 95.4366 35.4061 95.4366 35.9853V39.5756H93.9592V36.2773C93.9592 35.9808 93.8798 35.7582 93.7225 35.61C93.5652 35.4617 93.3682 35.3876 93.1315 35.3876C92.8625 35.3876 92.6538 35.4733 92.5023 35.6447C92.3524 35.8139 92.2774 36.0375 92.2774 36.3155V39.5756H90.8412V36.246C90.8412 35.9841 90.7662 35.7757 90.6148 35.6205C90.4678 35.4652 90.2708 35.3876 90.0283 35.3876C89.8636 35.3876 89.7151 35.4292 89.5828 35.5127C89.4535 35.5937 89.3506 35.7085 89.2741 35.8567C89.1977 36.0027 89.1595 36.1742 89.1595 36.3711V39.5756H87.6791ZM101.048 35.7594L99.6924 35.8429C99.6688 35.727 99.6188 35.6227 99.5424 35.5301C99.466 35.4351 99.3645 35.3597 99.2396 35.3041C99.1176 35.2462 98.9706 35.2172 98.7986 35.2172C98.5692 35.2172 98.3752 35.2659 98.2179 35.3632C98.0606 35.4582 97.9827 35.5856 97.9827 35.7456C97.9827 35.873 98.0327 35.9808 98.1356 36.0687C98.237 36.1567 98.4119 36.2274 98.6604 36.2808L99.6262 36.4754C100.145 36.582 100.532 36.7534 100.786 36.9898C101.042 37.2262 101.17 37.5367 101.17 37.9212C101.17 38.2711 101.065 38.5782 100.86 38.8422C100.655 39.1064 100.376 39.3126 100.019 39.461C99.6644 39.6069 99.2557 39.6798 98.7912 39.6798C98.0856 39.6798 97.5225 39.5327 97.1021 39.2385C96.6861 38.9419 96.4406 38.5388 96.3686 38.029L97.8254 37.9525C97.8695 38.168 97.9768 38.3325 98.1459 38.446C98.3149 38.5573 98.531 38.6129 98.7956 38.6129C99.0543 38.6129 99.2631 38.563 99.4204 38.4634C99.5806 38.3615 99.6615 38.2305 99.6644 38.0707C99.6615 37.9362 99.6056 37.8263 99.4939 37.7406C99.3822 37.6525 99.2116 37.5853 98.9794 37.5389L98.0547 37.3547C97.5343 37.2504 97.1462 37.0698 96.8904 36.8125C96.6376 36.5553 96.5112 36.2274 96.5112 35.8289C96.5112 35.486 96.6038 35.1906 96.7905 34.9426C96.9772 34.6948 97.2403 34.5035 97.5784 34.3692C97.9195 34.2348 98.3178 34.1676 98.775 34.1676C99.4483 34.1676 99.979 34.3101 100.366 34.5951C100.755 34.8801 100.983 35.2682 101.048 35.7594Z" fill="#F6F7F6"/>
<path id="Vector_7" d="M29.1341 42.8857V48.864M37.9059 42.8857V48.864M22.7541 49.2625H44.2859" stroke="#F6F7F6" stroke-width="0.713333" stroke-linecap="round" stroke-linejoin="round"/>
<path id="Vector_8" d="M72.2367 45.1691C72.2073 44.9176 72.0867 44.7224 71.875 44.5833C71.6634 44.4443 71.4032 44.3747 71.0944 44.3747C70.8695 44.3747 70.6725 44.4112 70.505 44.4839C70.3374 44.5569 70.2065 44.657 70.1125 44.7844C70.0198 44.9119 69.9728 45.0567 69.9728 45.2188C69.9728 45.3545 70.0052 45.4712 70.0698 45.5688C70.136 45.6648 70.2198 45.7451 70.3227 45.8096C70.4256 45.8726 70.5329 45.9247 70.6461 45.966C70.7578 46.0059 70.8622 46.0381 70.9563 46.0629L71.4723 46.202C71.6046 46.2367 71.7516 46.2848 71.9147 46.3459C72.0779 46.4072 72.2352 46.4907 72.3837 46.5967C72.5336 46.7009 72.6586 46.835 72.7556 46.9989C72.8541 47.1627 72.9026 47.3638 72.9026 47.6021C72.9026 47.8768 72.8306 48.1251 72.6865 48.3469C72.5439 48.5686 72.3352 48.7449 72.0603 48.8757C71.7883 49.0064 71.4561 49.0718 71.065 49.0718C70.7019 49.0718 70.3859 49.013 70.1198 48.8956C69.8552 48.778 69.6464 48.6142 69.4936 48.404C69.3436 48.1938 69.2584 47.9497 69.2378 47.6716H69.8743C69.8905 47.8636 69.9552 48.0225 70.0669 48.1483C70.1815 48.2724 70.3256 48.365 70.4991 48.4263C70.674 48.4859 70.8636 48.5157 71.065 48.5157C71.3002 48.5157 71.5119 48.4776 71.6986 48.4015C71.8853 48.3237 72.0338 48.2161 72.1426 48.0788C72.2514 47.9397 72.3072 47.7776 72.3072 47.5922C72.3072 47.4233 72.2587 47.286 72.1646 47.18C72.0706 47.0742 71.9471 46.988 71.7927 46.9219C71.6384 46.8557 71.4723 46.7978 71.2944 46.7481L70.6681 46.5694C70.2712 46.4551 69.9566 46.2921 69.7244 46.0803C69.4936 45.8684 69.3774 45.5912 69.3774 45.2487C69.3774 44.9639 69.4539 44.7158 69.6082 44.5038C69.7641 44.2903 69.9728 44.1248 70.233 44.0074C70.4961 43.8881 70.7902 43.8286 71.115 43.8286C71.4429 43.8286 71.7339 43.8874 71.9882 44.0049C72.244 44.1207 72.4454 44.2796 72.5939 44.4815C72.7453 44.6834 72.8247 44.9126 72.8335 45.1691H72.2367ZM75.384 49.0618C75.0268 49.0618 74.7196 48.9774 74.4609 48.8087C74.2021 48.6398 74.0037 48.4072 73.8655 48.111C73.7258 47.8148 73.6567 47.4764 73.6567 47.0956C73.6567 46.7084 73.7273 46.3666 73.8699 46.0704C74.014 45.7724 74.2139 45.5399 74.4711 45.3727C74.7284 45.204 75.0298 45.1196 75.3737 45.1196C75.6428 45.1196 75.8839 45.1691 76.1 45.2685C76.3146 45.3677 76.491 45.5068 76.6277 45.6856C76.7659 45.8643 76.8512 46.0728 76.8835 46.3112H76.2984C76.2529 46.1375 76.1544 45.9835 76 45.8495C75.8471 45.7136 75.6428 45.6459 75.384 45.6459C75.1562 45.6459 74.9562 45.7054 74.7843 45.8246C74.6137 45.9421 74.48 46.1085 74.3844 46.3236C74.2889 46.537 74.2418 46.7878 74.2418 47.0758C74.2418 47.3704 74.2889 47.6269 74.3815 47.8454C74.4756 48.0638 74.6079 48.2334 74.7784 48.3543C74.9504 48.4751 75.1532 48.5355 75.384 48.5355C75.5369 48.5355 75.6751 48.5091 75.7986 48.4562C75.9235 48.4031 76.0279 48.3269 76.1147 48.2277C76.1999 48.1283 76.2617 48.0093 76.2984 47.8702H76.8835C76.8512 48.0953 76.7688 48.298 76.638 48.4785C76.5086 48.6571 76.3381 48.7996 76.1235 48.9054C75.9118 49.0098 75.6663 49.0618 75.384 49.0618ZM78.8622 49.0718C78.6211 49.0718 78.4021 49.0262 78.2051 48.9352C78.0081 48.8425 77.8508 48.7093 77.7346 48.5355C77.62 48.3602 77.5612 48.1483 77.5612 47.9C77.5612 47.6816 77.6053 47.5045 77.6905 47.3688C77.7773 47.2313 77.8919 47.1239 78.036 47.0459C78.1801 46.9682 78.3388 46.9103 78.5123 46.8722C78.6872 46.8325 78.8636 46.801 79.0415 46.778C79.2723 46.7481 79.4605 46.7258 79.6045 46.7109C79.7501 46.6943 79.8559 46.667 79.9221 46.6289C79.9897 46.5908 80.025 46.5247 80.025 46.4303V46.4104C80.025 46.1655 79.9574 45.9752 79.8236 45.8395C79.6913 45.7038 79.4899 45.6359 79.2194 45.6359C78.9401 45.6359 78.721 45.6972 78.5623 45.8196C78.4035 45.9421 78.2918 46.0728 78.2271 46.2118L77.6714 46.0132C77.7699 45.7816 77.9022 45.6012 78.0684 45.4721C78.2345 45.3413 78.4168 45.2503 78.6137 45.199C78.8122 45.1461 79.0077 45.1196 79.2003 45.1196C79.3223 45.1196 79.4634 45.1344 79.6222 45.1643C79.7824 45.1924 79.9368 45.2512 80.0867 45.3405C80.2367 45.4299 80.3616 45.5647 80.4616 45.7451C80.5601 45.9255 80.6101 46.1672 80.6101 46.47V48.9824H80.025V48.466H79.9941C79.9544 48.5488 79.8883 48.6373 79.7957 48.7316C79.703 48.826 79.5796 48.9063 79.4267 48.9724C79.2723 49.0387 79.0841 49.0718 78.8622 49.0718ZM78.9518 48.5455C79.1841 48.5455 79.3782 48.5 79.5384 48.409C79.6986 48.318 79.8192 48.2004 79.9 48.0565C79.9824 47.9124 80.025 47.761 80.025 47.6021V47.0659C80 47.0956 79.9441 47.123 79.8603 47.1478C79.778 47.1709 79.681 47.1916 79.5722 47.2099C79.4649 47.2265 79.3591 47.2413 79.2576 47.2545C79.1562 47.2662 79.0738 47.276 79.0106 47.2844C78.8592 47.3042 78.7166 47.3364 78.5843 47.3811C78.4535 47.4242 78.3477 47.4896 78.2668 47.5772C78.1874 47.6634 78.1477 47.7808 78.1477 47.9297C78.1477 48.1333 78.2227 48.2872 78.3727 48.3916C78.5255 48.4942 78.7181 48.5455 78.9518 48.5455ZM82.2653 46.6886V48.9824H81.6788V45.1691H82.2462V45.7649H82.2947C82.3844 45.5713 82.5196 45.4158 82.7019 45.2984C82.8842 45.1791 83.1194 45.1196 83.4076 45.1196C83.6663 45.1196 83.8912 45.1725 84.0853 45.2784C84.2793 45.3827 84.4292 45.5416 84.5365 45.7551C84.6439 45.9669 84.6982 46.2351 84.6982 46.5594V48.9824H84.1117V46.5992C84.1117 46.2996 84.0353 46.0662 83.8794 45.899C83.7236 45.7303 83.5105 45.6459 83.2385 45.6459C83.0518 45.6459 82.8842 45.6864 82.7372 45.7674C82.5917 45.8486 82.477 45.9669 82.3917 46.1225C82.308 46.2781 82.2653 46.4667 82.2653 46.6886Z" fill="#C7CECA"/>
<path id="Vector_9" d="M62.2312 48.8033C63.3322 48.8033 64.2246 47.9111 64.2246 46.8107C64.2246 45.71 63.3322 44.8179 62.2312 44.8179C61.1301 44.8179 60.2378 45.71 60.2378 46.8107C60.2378 47.9111 61.1301 48.8033 62.2312 48.8033Z" fill="#00D783"/>
</g>
</svg>
