<svg preserveAspectRatio="none" overflow="visible" style="display: block;" width="188.005" height="43.5942" viewBox="0 0 188.005 43.5942" fill="none" xmlns="http://www.w3.org/2000/svg">
<g id="Group">
<path id="Vector" d="M71.8219 30.6287V12.9655H80.8399V14.9092H74.0735V20.713H80.4062V22.6074H74.0735V28.6904H80.8399V30.6342H71.8219V30.6287ZM90.9643 23.3357L93.3217 14.9803L95.6791 23.3357H90.9643ZM88.9127 30.6287L90.4472 25.2028H96.2128L97.7473 30.6287H100.105L94.7728 12.9655H91.9539L86.6221 30.6287H88.9017H88.9127ZM106.565 19.7001C108.178 19.7001 108.95 20.5597 108.95 22.3994V23.4342H104.186V22.3994C104.186 20.5543 104.953 19.7001 106.571 19.7001M101.984 22.5526V26.3415C101.984 29.2927 103.596 30.8806 106.521 30.8806C109.445 30.8806 110.98 29.5939 111.08 26.8672H108.95C108.873 28.5043 108.133 29.1888 106.515 29.1888C104.897 29.1888 104.186 28.3072 104.186 26.4621V25.2028H111.13V22.5035C111.13 19.5741 109.54 18.0137 106.571 18.0137C103.602 18.0137 101.984 19.6015 101.984 22.5526ZM119.742 20.3352V18.1669H119.508C117.946 18.1669 116.868 18.8459 116.256 20.1381V18.271H114.182V30.6342H116.384V23.1386C116.384 21.5015 117.179 20.2859 119.225 20.2859C119.431 20.2859 119.636 20.3078 119.736 20.3352M125.785 29.1668C124.173 29.1668 123.428 28.3072 123.428 26.4675V22.4268C123.428 20.5871 124.173 19.7275 125.785 19.7275C127.398 19.7275 128.143 20.5871 128.143 22.4268V26.4675C128.143 28.3072 127.398 29.1668 125.785 29.1668ZM125.785 30.8806C128.76 30.8806 130.35 29.2927 130.35 26.3415V22.5526C130.35 19.6015 128.76 18.0137 125.785 18.0137C122.811 18.0137 121.226 19.6015 121.226 22.5526V26.3415C121.226 29.2927 122.817 30.8806 125.785 30.8806ZM135.137 21.1674C135.137 20.1819 135.827 19.6782 137.033 19.6782C138.467 19.6782 139.057 20.3571 139.057 21.8464H141.158C141.158 19.2237 139.929 18.0082 137.033 18.0082C134.442 18.0082 133.008 19.2675 133.008 21.4686C133.008 23.5109 134.342 24.2445 136.032 25.0494L137.339 25.679C138.673 26.3087 139.135 26.6099 139.135 27.6228C139.135 28.7069 138.368 29.2106 137.033 29.2106C135.493 29.2106 134.831 28.5043 134.831 26.9384H132.73C132.73 29.6377 134.064 30.8752 137.033 30.8752C139.724 30.8752 141.259 29.5611 141.259 27.3161C141.259 25.2739 139.924 24.5403 138.234 23.7354L136.928 23.1057C135.593 22.4761 135.132 22.1749 135.132 21.162M150.994 26.4621C150.994 28.2305 150.299 29.0354 148.764 29.0354C147.075 29.0354 146.279 27.924 146.279 26.0842V22.6787C146.279 20.839 147.075 19.7275 148.764 19.7275C150.299 19.7275 150.994 20.5378 150.994 22.3009V26.4675V26.4621ZM153.195 26.4128V22.3501C153.195 19.5249 151.734 18.0082 149.247 18.0082C147.813 18.0082 146.763 18.6105 146.145 19.7712V18.2601H144.072V35.1677H146.274V29.2106C146.885 30.2181 147.914 30.7492 149.247 30.7492C151.734 30.7492 153.195 29.2325 153.195 26.4073M159.856 29.0573C158.522 29.0573 157.86 28.3729 157.86 27.0151V26.6373C157.86 25.1973 158.755 24.6442 161.191 24.6442H162.348V26.4621C162.348 28.154 161.474 29.0628 159.861 29.0628M159.378 30.7546C160.841 30.7546 161.913 30.1743 162.503 29.0628V30.6287H164.554V21.9723C164.554 19.273 163.147 18.0082 160.195 18.0082C157.404 18.0082 156.02 19.2182 155.969 21.7204H158.1C158.127 20.3845 158.844 19.6782 160.201 19.6782C161.664 19.6782 162.353 20.4119 162.353 21.9777V22.936H161.074C157.382 22.936 155.669 24.146 155.669 26.7742V27.152C155.669 29.3475 157.131 30.7602 159.383 30.7602M172.115 30.8861C175.112 30.8861 176.469 29.5009 176.469 26.3963H174.345C174.345 28.3894 173.678 29.1723 172.115 29.1723C170.553 29.1723 169.78 28.3127 169.78 26.473V22.4322C169.78 20.5925 170.526 19.7329 172.115 19.7329C173.705 19.7329 174.317 20.4119 174.345 22.3555H176.469C176.441 19.3278 175.134 18.0137 172.115 18.0137C169.096 18.0137 167.579 19.6015 167.579 22.5526V26.3415C167.579 29.2927 169.169 30.8806 172.115 30.8806M183.44 19.7001C185.053 19.7001 185.826 20.5597 185.826 22.3994V23.4342H181.062V22.3994C181.062 20.5543 181.829 19.7001 183.447 19.7001M178.86 22.5526V26.3415C178.86 29.2927 180.472 30.8806 183.397 30.8806C186.32 30.8806 187.856 29.5939 187.955 26.8672H185.826C185.748 28.5043 185.008 29.1888 183.391 29.1888C181.773 29.1888 181.062 28.3072 181.062 26.4621V25.2028H188.005V22.5035C188.005 19.5741 186.416 18.0137 183.447 18.0137C180.477 18.0137 178.86 19.6015 178.86 22.5526ZM63.0874 30.8806C64.9054 30.8806 66.5456 30.5029 68.0578 29.7198V20.713H62.548V22.6074H65.8283V28.4605C65.0611 28.7891 64.0603 28.9916 63.1151 28.9916C60.3464 28.9916 59.2956 27.6776 59.2956 24.2719V18.1889C59.2956 15.944 60.5799 14.608 62.7315 14.608C64.8832 14.608 65.8561 15.5936 65.9061 17.7126H68.2413C68.1635 14.3069 66.4233 12.7191 62.7315 12.7191C59.0398 12.7191 57.0438 14.6847 57.0438 18.271V24.1734C57.0438 28.8438 58.8896 30.8861 63.0929 30.8861M27.0986 16.1247C27.0986 13.6499 28.8 11.2408 29.734 11.7007C30.7903 12.2208 28.9389 14.5588 27.0986 16.1247ZM15.5063 17.0282C15.5063 15.0351 17.5024 11.2462 18.7255 11.6459C20.1655 12.1168 17.5302 15.9386 15.5063 17.0282ZM13.4826 31.2803C12.5652 31.3241 11.9536 30.7437 11.9536 29.7746C11.9536 27.1794 15.6065 24.699 18.3696 23.3685C17.8804 26.9931 16.635 31.1324 13.4881 31.2748M30.3511 22.821C28.2662 22.821 26.6705 24.3321 26.6705 26.1445C26.6705 27.6556 27.5879 28.8602 28.8166 28.8602C29.2446 28.8602 29.6728 28.6193 29.6728 28.0773C29.6728 27.2943 28.6165 27.1027 28.6998 25.9255C28.7498 25.1534 29.4949 24.6333 30.2288 24.6333C31.7021 24.6333 32.3916 26.0405 32.3916 27.4859C32.3304 29.7198 30.6624 31.2748 28.6998 31.2748C26.1256 31.2748 24.4687 28.8602 24.4687 26.2595C24.4687 22.3939 27.043 20.8882 28.394 20.5269C28.4108 20.5269 31.919 21.1455 31.8078 19.6179C31.7633 18.95 30.7459 18.6926 30.0119 18.6598C29.1946 18.6268 28.3774 18.9172 28.3774 18.9172C27.9492 18.7035 27.6545 18.2875 27.4712 17.8056C29.9841 15.9331 31.7633 14.1207 31.7633 12.0675C31.7633 10.9834 31.0294 10.0143 29.6172 10.0143C27.1042 10.0143 25.2026 13.1516 25.2026 15.9934C25.2026 16.4751 25.2026 16.9624 25.325 17.384C23.7293 18.5338 22.5452 19.2456 20.399 20.5104C20.399 20.2476 20.4545 19.5632 20.638 18.6816C21.3719 17.8987 22.3839 16.7215 22.3839 15.8182C22.3839 15.3965 22.1392 15.0351 21.65 15.0351C20.4267 15.0351 19.5039 16.8474 19.2592 18.1123C18.7089 18.7748 17.6024 19.6234 16.685 19.6234C15.9511 19.6234 15.7064 18.9554 15.6398 18.72C17.9694 17.9315 20.8549 14.7942 20.8549 11.958C20.8549 11.3557 20.6102 10.0252 18.77 10.0252C16.0123 10.0252 13.6827 14.0715 13.6827 17.2088C12.6986 17.2088 12.3373 16.1794 12.3373 15.3965C12.3373 14.6136 12.643 13.8251 12.643 13.5842C12.643 13.3433 12.5207 13.0421 12.1538 13.0421C11.2364 13.0421 10.6804 14.2522 10.6804 15.6374C10.7416 17.5702 12.0315 18.7802 13.7439 18.9007C13.9886 20.0505 15.0337 21.1346 16.3181 21.1346C17.1188 21.1346 18.0972 20.8937 18.77 20.2913C18.7089 20.713 18.6477 21.0744 18.5865 21.4413C15.89 22.8319 13.9274 23.7956 12.1482 25.3669C10.7416 26.6373 9.94096 28.3237 9.94096 29.6541C9.94096 31.4664 11.103 33.1528 13.4993 33.1528C16.3181 33.1528 18.4642 30.9189 19.5095 27.8418C19.9987 26.3908 20.1988 24.2829 20.3212 22.3501C23.1399 20.7842 24.4799 19.8698 25.9477 18.8459C26.1312 19.1471 26.3203 19.388 26.5592 19.5686C25.275 20.2311 22.2059 22.1038 22.2059 26.5113C22.2059 29.6541 24.352 33.1528 28.5831 33.1528C32.0802 33.1528 34.4709 30.3166 34.4709 27.6009C34.4709 25.1261 33.0587 22.8319 30.3623 22.8319M40.9036 28.017C40.9036 28.017 40.8592 28.0664 40.7925 28.039C40.7425 28.0225 40.7257 27.9951 40.7257 27.9623C40.7257 27.924 41.4652 25.7777 41.4596 23.3138C41.454 20.6582 40.3532 19.0266 38.9465 19.0266C38.0904 19.0266 37.4732 19.6288 37.4732 20.5378C37.4732 22.1694 39.497 22.2899 39.497 25.8542C39.497 27.3052 39.1912 28.6904 38.702 30.2017C36.4336 37.7466 29.1946 41.2507 22.1504 41.2507C18.8978 41.2507 16.5905 40.5937 15.9011 40.2926C15.8733 40.2816 15.8511 40.227 15.8733 40.1722C15.89 40.1283 15.9345 40.1009 15.9623 40.112C16.2402 40.2214 18.2251 40.8347 20.677 40.8347C23.3734 40.8347 24.9691 39.7506 24.9691 38.4201C24.9691 37.5768 24.2964 36.9143 23.4346 36.9143C21.7779 36.9143 21.6556 38.9676 18.1028 38.9676C16.5683 38.9676 15.2228 38.6664 13.6271 38.1846C6.02129 35.8904 2.40185 28.8273 2.40741 21.819C2.40741 18.4079 3.38038 15.6921 3.39705 15.6648C3.40817 15.6484 3.45265 15.6265 3.50824 15.6484C3.56385 15.6648 3.57497 15.7141 3.57497 15.725C3.48601 16.0097 2.84108 17.9535 2.84108 20.368C2.84108 23.0236 3.94191 24.595 5.35412 24.595C6.15473 24.595 6.82747 23.9928 6.82747 23.144C6.82747 21.5124 4.80369 21.3317 4.80369 17.8276C4.80369 16.3164 5.10949 14.9914 5.59875 13.4199C7.91163 5.91879 15.0839 2.40912 22.1337 2.35437C25.4085 2.32699 28.2772 3.29612 28.3884 3.37825C28.4052 3.39468 28.4274 3.43848 28.4052 3.48775C28.383 3.54251 28.344 3.55346 28.3274 3.54798C28.294 3.54798 26.4259 2.77597 23.6071 2.77597C20.9717 2.77597 19.3148 3.86008 19.3148 5.2508C19.3148 6.03376 19.9264 6.69627 20.8493 6.69627C22.5062 6.69627 22.6285 4.70327 26.1812 4.70327C27.7157 4.70327 29.0613 5.00441 30.6569 5.48624C38.3239 7.78038 41.8098 14.9038 41.8766 21.7917C41.91 25.3177 40.9036 27.9897 40.8926 28.006M22.1337 1.02388C10.4858 1.02388 1.03969 10.3264 1.03969 21.7971C1.03969 33.2678 10.4858 42.5648 22.1337 42.5648C33.7816 42.5648 43.2222 33.2678 43.2222 21.7971C43.2222 10.3264 33.7816 1.02388 22.1337 1.02388ZM22.1337 43.5942C9.92985 43.5942 0 33.8756 0 21.7971C0 9.71863 9.92985 0 22.1337 0C34.3375 0 44.2673 9.78434 44.2673 21.7971C44.2673 33.8099 34.3319 43.5942 22.1337 43.5942Z" fill="white"/>
</g>
</svg>
