<svg preserveAspectRatio="none" overflow="visible" style="display: block;" width="132.476" height="60.4756" viewBox="0 0 132.476 60.4756" fill="none" xmlns="http://www.w3.org/2000/svg">
<g id="Group 8">
<path id="Vector" d="M122.638 0.237778H9.83774C4.53639 0.237778 0.237778 4.39715 0.237778 9.52815V50.9475C0.237778 56.0784 4.53639 60.2378 9.83774 60.2378H122.638C127.939 60.2378 132.238 56.0784 132.238 50.9475V9.52815C132.238 4.39715 127.939 0.237778 122.638 0.237778Z" fill="#101412" stroke="#00A65A" stroke-width="0.475556"/>
<path id="Vector_2" d="M42.8595 10.2324H18.0588C17.1755 10.2324 16.4588 10.9256 16.4588 11.7807V45.8453C16.4588 46.7004 17.1755 47.3938 18.0588 47.3938H42.8595C43.7428 47.3938 44.4594 46.7004 44.4594 45.8453V11.7807C44.4594 10.9256 43.7428 10.2324 42.8595 10.2324Z" stroke="#F6F7F6" stroke-width="0.713333" stroke-linecap="round" stroke-linejoin="round"/>
<path id="Vector_3" d="M40.0591 16.0371H20.8592C20.4168 16.0371 20.0585 16.3836 20.0585 16.8113V36.166C20.0585 36.5937 20.4168 36.9403 20.8592 36.9403H40.0591C40.5015 36.9403 40.8583 36.5937 40.8583 36.166V16.8113C40.8583 16.3836 40.5015 16.0371 40.0591 16.0371Z" stroke="#F6F7F6" stroke-width="0.713333" stroke-linecap="round" stroke-linejoin="round"/>
<path id="Vector_4" d="M22.8588 13.3286H38.0595M23.2599 40.0383H37.6598M24.4588 43.5222H36.4594M19.6588 47.3932L17.2596 50.49M41.2594 47.3932L43.6587 50.49" stroke="#F6F7F6" stroke-width="0.713333" stroke-linecap="round" stroke-linejoin="round"/>
<path id="Vector_5" d="M24.0592 32.6814H36.8591M26.0602 29.9717H34.8595" stroke="#00D783" stroke-width="0.713333" stroke-linecap="round" stroke-linejoin="round"/>
<path id="Vector_6" d="M60.2378 33.6947V26.7812H61.7478V32.4896H64.8092V33.6947H60.2378ZM65.809 33.6947V26.7812H68.6255C69.1667 26.7812 69.6283 26.8813 70.0102 27.0816C70.3907 27.2797 70.6812 27.5554 70.8818 27.9086C71.0838 28.2597 71.1856 28.6648 71.1856 29.124C71.1856 29.583 71.0823 29.9881 70.8773 30.3392C70.6738 30.6903 70.3775 30.9637 69.9896 31.1595C69.6033 31.3554 69.1358 31.4532 68.5872 31.4532H66.7926V30.2818H68.3439C68.6344 30.2818 68.8733 30.2334 69.0621 30.1367C69.2523 30.0377 69.3939 29.9016 69.4868 29.7282C69.5826 29.5526 69.6298 29.3513 69.6298 29.124C69.6298 28.8944 69.5826 28.6941 69.4868 28.523C69.3939 28.3498 69.2523 28.2159 69.0621 28.1214C68.8704 28.0246 68.63 27.9762 68.3365 27.9762H67.319V33.6947H65.809ZM72.1647 33.6947V26.7812H75.0241C75.549 26.7812 75.9885 26.8566 76.3394 27.0074C76.6904 27.1582 76.9529 27.3675 77.1298 27.6352C77.3068 27.9008 77.3953 28.2069 77.3953 28.5534C77.3953 28.8236 77.3392 29.0609 77.2272 29.2658C77.1166 29.4682 76.9632 29.6349 76.7671 29.7654C76.5754 29.8936 76.3542 29.9848 76.105 30.0388V30.1063C76.3778 30.1176 76.6314 30.1919 76.8688 30.3291C77.1077 30.4664 77.3024 30.6588 77.4513 30.9063C77.6003 31.1516 77.674 31.4442 77.674 31.784C77.674 32.1508 77.5796 32.4784 77.3923 32.7664C77.205 33.0522 76.9308 33.2784 76.565 33.4449C76.2008 33.6115 75.7511 33.6947 75.2158 33.6947H72.1647ZM73.6748 32.4996H74.9061C75.3263 32.4996 75.6331 32.4221 75.8262 32.2668C76.0194 32.1093 76.1153 31.9 76.1153 31.639C76.1153 31.4476 76.0681 31.2789 75.9723 31.1325C75.8779 30.9863 75.7408 30.8715 75.5653 30.7883C75.3898 30.7049 75.1818 30.6633 74.94 30.6633H73.6748V32.4996ZM73.6748 29.6743H74.794C75.0005 29.6743 75.1848 29.6393 75.3455 29.5696C75.5077 29.4975 75.636 29.3963 75.7289 29.2658C75.8233 29.1353 75.872 28.9788 75.872 28.7965C75.872 28.5467 75.7791 28.3453 75.5962 28.1922C75.4148 28.0393 75.1567 27.9628 74.822 27.9628H73.6748V29.6743ZM78.6561 33.6947V26.7812H83.3838V27.9863H80.1662V29.6337H83.0697V30.8388H80.1662V33.6947H78.6561Z" fill="#F6F7F6"/>
<path id="Vector_7" d="M62.2374 41.2318C63.3419 41.2318 64.237 40.3652 64.237 39.2964C64.237 38.2274 63.3419 37.3608 62.2374 37.3608C61.1329 37.3608 60.2378 38.2274 60.2378 39.2964C60.2378 40.3652 61.1329 41.2318 62.2374 41.2318Z" fill="#00D783"/>
<path id="Vector_8" d="M69.2378 41.6443V36.706H72.3153V37.2365H69.8556V38.9052H72.1561V39.4356H69.8556V41.1139H72.3552V41.6443H69.2378ZM73.787 37.9407L74.7043 39.4549L75.6201 37.9407H76.2984L75.0626 39.7924L76.2984 41.6443H75.6201L74.7043 40.2072L73.787 41.6443H73.1102L74.3253 39.7924L73.1102 37.9407H73.787ZM78.5826 41.7214C78.2139 41.7214 77.8969 41.6427 77.6285 41.4851C77.3631 41.326 77.1581 41.1041 77.0136 40.8196C76.8705 40.5334 76.7997 40.2008 76.7997 39.8214C76.7997 39.442 76.8705 39.1076 77.0136 38.8184C77.1581 38.5274 77.3586 38.3006 77.6167 38.1383C77.8762 37.9744 78.1771 37.8924 78.5236 37.8924C78.7227 37.8924 78.9188 37.9245 79.1135 37.9888C79.3081 38.0532 79.4836 38.1576 79.6443 38.3023C79.8036 38.4454 79.9304 38.635 80.0248 38.8713C80.1192 39.1076 80.1664 39.3986 80.1664 39.7443V39.9853H77.2185V39.4934H79.5691C79.5691 39.2845 79.5264 39.0981 79.4394 38.934C79.3553 38.7701 79.2329 38.6407 79.0766 38.5458C78.9203 38.451 78.736 38.4036 78.5236 38.4036C78.2892 38.4036 78.0871 38.4598 77.916 38.5723C77.7465 38.6833 77.6152 38.8279 77.5238 39.0064C77.4324 39.1849 77.3881 39.3761 77.3881 39.5802V39.9082C77.3881 40.1879 77.4368 40.4249 77.5371 40.6195C77.6388 40.8124 77.7789 40.9595 77.9574 41.0607C78.1373 41.1604 78.3452 41.2102 78.5826 41.2102C78.7374 41.2102 78.8761 41.1894 79.0014 41.1475C79.1268 41.1041 79.2358 41.0399 79.3273 40.9546C79.4187 40.8678 79.4895 40.7602 79.5396 40.6315L80.1074 40.7859C80.0469 40.9724 79.9466 41.1363 79.8051 41.2778C79.665 41.4177 79.4895 41.5269 79.283 41.6057C79.0751 41.6828 78.8421 41.7214 78.5826 41.7214ZM82.6143 41.7214C82.2559 41.7214 81.9477 41.6394 81.6882 41.4755C81.4287 41.3116 81.2296 41.0857 81.091 40.7979C80.9509 40.5102 80.8816 40.1815 80.8816 39.8117C80.8816 39.4356 80.9523 39.1036 81.0954 38.8159C81.2399 38.5265 81.4404 38.3006 81.6985 38.1383C81.9566 37.9744 82.2589 37.8924 82.604 37.8924C82.8738 37.8924 83.1156 37.9407 83.3324 38.037C83.5477 38.1336 83.7247 38.2685 83.8618 38.4421C84.0004 38.6157 84.0859 38.8183 84.1184 39.0498H83.5315C83.4858 38.881 83.387 38.7315 83.2322 38.6013C83.0788 38.4695 82.8738 38.4036 82.6143 38.4036C82.3857 38.4036 82.1852 38.4614 82.0126 38.5772C81.8416 38.6913 81.7074 38.8529 81.6115 39.0618C81.5171 39.2693 81.4685 39.5127 81.4685 39.7924C81.4685 40.0785 81.5156 40.3277 81.6086 40.5399C81.7029 40.7522 81.8357 40.917 82.0067 41.0342C82.1793 41.1515 82.3827 41.2102 82.6143 41.2102C82.7676 41.2102 82.9063 41.1845 83.0301 41.1331C83.1555 41.0817 83.2602 41.0078 83.3472 40.9112C83.4327 40.8149 83.4946 40.6991 83.5315 40.564H84.1184C84.0859 40.7826 84.0034 40.9796 83.8721 41.1548C83.7424 41.3285 83.5713 41.4667 83.3575 41.5695C83.1437 41.6708 82.8974 41.7214 82.6143 41.7214ZM87.3892 40.1301V37.9407H87.9761V41.6443H87.3892V41.0173H87.3494C87.2594 41.2054 87.1193 41.3654 86.9306 41.4972C86.7418 41.6274 86.5015 41.6925 86.2139 41.6925C85.9735 41.6925 85.7612 41.6419 85.5754 41.5406C85.3895 41.4377 85.2436 41.2833 85.1374 41.0776C85.0312 40.8703 84.9781 40.6091 84.9781 40.294V37.9407H85.565V40.2554C85.565 40.5254 85.6432 40.7409 85.7995 40.9017C85.9573 41.0623 86.1578 41.1427 86.4026 41.1427C86.5486 41.1427 86.6976 41.1066 86.848 41.0342C87.0013 40.9619 87.1282 40.851 87.2314 40.7015C87.3361 40.552 87.3892 40.3615 87.3892 40.1301ZM90.716 37.9407V38.4228H88.734V37.9407H90.716ZM89.3121 37.0533H89.899V40.5833C89.899 40.744 89.9241 40.8647 89.9713 40.9451C90.0214 41.0238 90.0848 41.0769 90.1615 41.1041C90.2397 41.1298 90.3208 41.1427 90.4078 41.1427C90.4727 41.1427 90.5258 41.1395 90.567 41.1331C90.6083 41.1251 90.6422 41.1186 90.6658 41.1139L90.7867 41.625C90.7455 41.6394 90.6909 41.654 90.6187 41.6684C90.5479 41.6844 90.4579 41.6925 90.3473 41.6925C90.1822 41.6925 90.0185 41.658 89.8592 41.5889C89.7014 41.5196 89.5702 41.4144 89.4655 41.2729C89.3637 41.1316 89.3121 40.9531 89.3121 40.7376V37.0533ZM93.1624 41.7214C92.7938 41.7214 92.4767 41.6427 92.2098 41.4851C91.9429 41.326 91.7379 41.1041 91.5949 40.8196C91.4518 40.5334 91.3796 40.2008 91.3796 39.8214C91.3796 39.442 91.4518 39.1076 91.5949 38.8184C91.7379 38.5274 91.94 38.3006 92.1965 38.1383C92.4561 37.9744 92.7584 37.8924 93.1034 37.8924C93.3025 37.8924 93.4986 37.9245 93.6933 37.9888C93.8879 38.0532 94.0649 38.1576 94.2242 38.3023C94.3834 38.4454 94.5103 38.635 94.6046 38.8713C94.699 39.1076 94.7462 39.3986 94.7462 39.7443V39.9853H91.7984V39.4934H94.1489C94.1489 39.2845 94.1062 39.0981 94.0192 38.934C93.9351 38.7701 93.8142 38.6407 93.6564 38.5458C93.5001 38.451 93.3158 38.4036 93.1034 38.4036C92.869 38.4036 92.6669 38.4598 92.4959 38.5723C92.3263 38.6833 92.1965 38.8279 92.1051 39.0064C92.0137 39.1849 91.968 39.3761 91.968 39.5802V39.9082C91.968 40.1879 92.0181 40.4249 92.1169 40.6195C92.2186 40.8124 92.3587 40.9595 92.5387 41.0607C92.7171 41.1604 92.925 41.2102 93.1624 41.2102C93.3173 41.2102 93.4574 41.1894 93.5812 41.1475C93.708 41.1041 93.8157 41.0399 93.9071 40.9546C93.9985 40.8678 94.0693 40.7602 94.1195 40.6315L94.6872 40.7859C94.6268 40.9724 94.5265 41.1363 94.3864 41.2778C94.2448 41.4177 94.0708 41.5269 93.8629 41.6057C93.6549 41.6828 93.422 41.7214 93.1624 41.7214Z" fill="#C7CECA"/>
</g>
</svg>
